<svg id="visual" viewBox="0 0 900 600" width="900" height="600" xmlns="http://www.w3.org/2000/svg" xmlns:xlink="http://www.w3.org/1999/xlink" version="1.1"><rect x="0" y="0" width="900" height="600" fill="#1e034b"></rect><g transform="translate(402.20744848508696 225.06574753142576)"><path d="M145.4 -230.2C185.2 -200.7 212 -154.9 261.5 -102.9C311 -50.9 383.1 7.3 409.5 82.8C435.8 158.2 416.3 251 364.5 322.3C312.8 393.6 228.8 443.4 141.5 458C54.3 472.7 -36.2 452.2 -108.6 411.8C-181 371.5 -235.2 311.1 -273 247.6C-310.8 184.1 -332.1 117.5 -323.8 57.4C-315.6 -2.7 -277.9 -56.2 -256.3 -122.7C-234.7 -189.2 -229.3 -268.7 -189.2 -298.1C-149.2 -327.5 -74.6 -306.8 -10.9 -289.8C52.8 -272.8 105.6 -259.7 145.4 -230.2" fill="#10002b"></path></g></svg>